# xmcd
#
# Track frame offsets:
#	150
#	15794
#	46718
#	66681
#	71493
#	94056
#	109205
#	129919
#	148618
#
# Disc length: 2332 seconds
#
# Revision: 0
# Processed by: cddbd v1.5.2PL0 Copyright (c) Steve Scherf et al.
# Submitted via: audiograbber 1.83.01
#
DISCID=75091a09
DTITLE=SinTech - Silence
DYEAR=2005
DGENRE=Black
TTITLE0=Intro
TTITLE1=Silence
TTITLE2=Examination of Love 
TTITLE3=Brainfrog 
TTITLE4=Shin 
TTITLE5=Sinthetic Symphony 
TTITLE6=The Eye of Horus 
TTITLE7=Dead Generation 
TTITLE8=The Red Room 
EXTD=
EXTT0=
EXTT1=
EXTT2=
EXTT3=
EXTT4=
EXTT5=
EXTT6=
EXTT7=
EXTT8=
PLAYORDER=
